REM DIRINDEX 1\2\5,1\2\6,1\3\7,1\3\8,1\4\9,1\4\10
REM DIRNAME folder01,folder02,folder03,folder04,folder05,folder06,folder07,folder08,folder09,folder10
TITLE ""
FILE "Track33.mp3" MP3
  TRACK 01 AUDIO
    TITLE "10:cjc079_1181"
    INDEX 01 00:00:00
  TRACK 02 AUDIO
    TITLE "10:cjc079_1182"
    INDEX 01 00:02:10
  TRACK 03 AUDIO
    TITLE "9:cjc079_1183"
    INDEX 01 00:04:09
  TRACK 04 AUDIO
    TITLE "0:"
    INDEX 01 00:05:34
  TRACK 05 AUDIO
    TITLE "9:cjc079_1184"
    INDEX 01 00:06:08
  TRACK 06 AUDIO
    TITLE "0:"
    INDEX 01 00:07:31
  TRACK 07 AUDIO
    TITLE "10:cjc079_1185"
    INDEX 01 00:09:04
  TRACK 08 AUDIO
    TITLE "9:cjc079_1186"
    INDEX 01 00:11:19
  TRACK 09 AUDIO
    TITLE "0:"
    INDEX 01 00:12:48
  TRACK 10 AUDIO
    TITLE "9:cjc079_1187"
    INDEX 01 00:13:24
  TRACK 11 AUDIO
    TITLE "0:"
    INDEX 01 00:14:54
  TRACK 12 AUDIO
    TITLE "10:cjc079_1188"
    INDEX 01 00:16:28
  TRACK 13 AUDIO
    TITLE "9:cjc079_1189"
    INDEX 01 00:18:42
  TRACK 14 AUDIO
    TITLE "0:"
    INDEX 01 00:20:06
  TRACK 15 AUDIO
    TITLE "9:cjc079_1190"
    INDEX 01 00:20:53
  TRACK 16 AUDIO
    TITLE "0:"
    INDEX 01 00:22:15
  TRACK 17 AUDIO
    TITLE "10:cjc079_1191"
    INDEX 01 00:23:65
  TRACK 18 AUDIO
    TITLE "9:cjc079_1192"
    INDEX 01 00:26:09
  TRACK 19 AUDIO
    TITLE "0:"
    INDEX 01 00:27:39
  TRACK 20 AUDIO
    TITLE "9:cjc079_1193"
    INDEX 01 00:28:13
  TRACK 21 AUDIO
    TITLE "0:"
    INDEX 01 00:29:44
  TRACK 22 AUDIO
    TITLE "10:cjc079_1194"
    INDEX 01 00:31:18
  TRACK 23 AUDIO
    TITLE "9:cjc079_1195"
    INDEX 01 00:33:34
  TRACK 24 AUDIO
    TITLE "0:"
    INDEX 01 00:34:63
  TRACK 25 AUDIO
    TITLE "9:cjc079_1196"
    INDEX 01 00:35:37
  TRACK 26 AUDIO
    TITLE "0:"
    INDEX 01 00:36:64
  TRACK 27 AUDIO
    TITLE "10:cjc079_1197"
    INDEX 01 00:38:37
  TRACK 28 AUDIO
    TITLE "9:cjc079_1198"
    INDEX 01 00:40:28
  TRACK 29 AUDIO
    TITLE "0:"
    INDEX 01 00:41:57
  TRACK 30 AUDIO
    TITLE "9:cjc079_1199"
    INDEX 01 00:42:27
  TRACK 31 AUDIO
    TITLE "0:"
    INDEX 01 00:43:56
  TRACK 32 AUDIO
    TITLE "10:cjc079_1200"
    INDEX 01 00:45:26
  TRACK 33 AUDIO
    TITLE "9:cjc079_1201"
    INDEX 01 00:47:40
  TRACK 34 AUDIO
    TITLE "0:"
    INDEX 01 00:49:10
  TRACK 35 AUDIO
    TITLE "9:cjc079_1202"
    INDEX 01 00:49:61
  TRACK 36 AUDIO
    TITLE "0:"
    INDEX 01 00:51:32
  TRACK 37 AUDIO
    TITLE "10:cjc079_1203"
    INDEX 01 00:53:04
  TRACK 38 AUDIO
    TITLE "9:cjc079_1204"
    INDEX 01 00:55:04
  TRACK 39 AUDIO
    TITLE "0:"
    INDEX 01 00:56:43
  TRACK 40 AUDIO
    TITLE "9:cjc079_1205"
    INDEX 01 00:57:15
  TRACK 41 AUDIO
    TITLE "0:"
    INDEX 01 00:58:52
  TRACK 42 AUDIO
    TITLE "10:cjc079_1206"
    INDEX 01 01:00:23
  TRACK 43 AUDIO
    TITLE "9:cjc079_1207"
    INDEX 01 01:02:38
  TRACK 44 AUDIO
    TITLE "0:"
    INDEX 01 01:04:05
  TRACK 45 AUDIO
    TITLE "9:cjc079_1208"
    INDEX 01 01:04:52
  TRACK 46 AUDIO
    TITLE "0:"
    INDEX 01 01:06:18
  TRACK 47 AUDIO
    TITLE "10:cjc079_1209"
    INDEX 01 01:07:66
  TRACK 48 AUDIO
    TITLE "9:cjc079_1210"
    INDEX 01 01:10:02
  TRACK 49 AUDIO
    TITLE "0:"
    INDEX 01 01:11:23
  TRACK 50 AUDIO
    TITLE "9:cjc079_1211"
    INDEX 01 01:12:01
  TRACK 51 AUDIO
    TITLE "0:"
    INDEX 01 01:13:22
  TRACK 52 AUDIO
    TITLE "10:cjc079_1212"
    INDEX 01 01:15:01
  TRACK 53 AUDIO
    TITLE "9:cjc079_1213"
    INDEX 01 01:17:06
  TRACK 54 AUDIO
    TITLE "0:"
    INDEX 01 01:18:33
  TRACK 55 AUDIO
    TITLE "9:cjc079_1214"
    INDEX 01 01:19:07
  TRACK 56 AUDIO
    TITLE "0:"
    INDEX 01 01:20:34
  TRACK 57 AUDIO
    TITLE "10:cjc079_1215"
    INDEX 01 01:22:09
  TRACK 58 AUDIO
    TITLE "9:cjc079_1216"
    INDEX 01 01:24:14
  TRACK 59 AUDIO
    TITLE "0:"
    INDEX 01 01:25:43
  TRACK 60 AUDIO
    TITLE "9:cjc079_1217"
    INDEX 01 01:26:17
  TRACK 61 AUDIO
    TITLE "0:"
    INDEX 01 01:27:46
  TRACK 62 AUDIO
    TITLE "10:cjc079_1218"
    INDEX 01 01:29:19
  TRACK 63 AUDIO
    TITLE "9:cjc079_1219"
    INDEX 01 01:31:30
  TRACK 64 AUDIO
    TITLE "0:"
    INDEX 01 01:32:64
  TRACK 65 AUDIO
    TITLE "9:cjc079_1220"
    INDEX 01 01:33:34
  TRACK 66 AUDIO
    TITLE "0:"
    INDEX 01 01:34:69
  TRACK 67 AUDIO
    TITLE "10:cjc079_1221"
    INDEX 01 01:36:41
  TRACK 68 AUDIO
    TITLE "9:cjc079_1222"
    INDEX 01 01:38:55
  TRACK 69 AUDIO
    TITLE "0:"
    INDEX 01 01:40:19
  TRACK 70 AUDIO
    TITLE "9:cjc079_1223"
    INDEX 01 01:40:66
  TRACK 71 AUDIO
    TITLE "0:"
    INDEX 01 01:42:31
  TRACK 72 AUDIO
    TITLE "10:cjc079_1224"
    INDEX 01 01:44:05
  TRACK 73 AUDIO
    TITLE "9:cjc079_1225"
    INDEX 01 01:46:21
  TRACK 74 AUDIO
    TITLE "0:"
    INDEX 01 01:47:62
  TRACK 75 AUDIO
    TITLE "9:cjc079_1226"
    INDEX 01 01:48:34
  TRACK 76 AUDIO
    TITLE "0:"
    INDEX 01 01:50:00
  TRACK 77 AUDIO
    TITLE "10:cjc079_1227"
    INDEX 01 01:51:50
  TRACK 78 AUDIO
    TITLE "9:cjc079_1228"
    INDEX 01 01:53:29
  TRACK 79 AUDIO
    TITLE "0:"
    INDEX 01 01:54:72
  TRACK 80 AUDIO
    TITLE "9:cjc079_1229"
    INDEX 01 01:55:48
  TRACK 81 AUDIO
    TITLE "0:"
    INDEX 01 01:57:15
  TRACK 82 AUDIO
    TITLE "10:cjc079_1230"
    INDEX 01 01:58:64
  TRACK 83 AUDIO
    TITLE "9:cjc079_1231"
    INDEX 01 02:00:71
  TRACK 84 AUDIO
    TITLE "0:"
    INDEX 01 02:02:46
  TRACK 85 AUDIO
    TITLE "9:cjc079_1232"
    INDEX 01 02:03:22
  TRACK 86 AUDIO
    TITLE "0:"
    INDEX 01 02:04:70
  TRACK 87 AUDIO
    TITLE "10:cjc079_1233"
    INDEX 01 02:06:50
  TRACK 88 AUDIO
    TITLE "9:cjc079_1234"
    INDEX 01 02:08:47
  TRACK 89 AUDIO
    TITLE "0:"
    INDEX 01 02:10:08
  TRACK 90 AUDIO
    TITLE "9:cjc079_1235"
    INDEX 01 02:10:55
  TRACK 91 AUDIO
    TITLE "0:"
    INDEX 01 02:12:19
  TRACK 92 AUDIO
    TITLE "10:cjc079_1236"
    INDEX 01 02:13:65
  TRACK 93 AUDIO
    TITLE "9:cjc079_1237"
    INDEX 01 02:15:70
  TRACK 94 AUDIO
    TITLE "0:"
    INDEX 01 02:17:55
  TRACK 95 AUDIO
    TITLE "9:cjc079_1238"
    INDEX 01 02:18:29
  TRACK 96 AUDIO
    TITLE "0:"
    INDEX 01 02:20:14
  TRACK 97 AUDIO
    TITLE "10:cjc079_1239"
    INDEX 01 02:21:63
  TRACK 98 AUDIO
    TITLE "9:cjc079_1240"
    INDEX 01 02:23:62
  TRACK 99 AUDIO
    TITLE "0:"
    INDEX 01 02:25:25
  TRACK 100 AUDIO
    TITLE "9:cjc079_1241"
    INDEX 01 02:25:74
  TRACK 101 AUDIO
    TITLE "0:"
    INDEX 01 02:27:38
  TRACK 102 AUDIO
    TITLE "10:cjc079_1242"
    INDEX 01 02:29:11
  TRACK 103 AUDIO
    TITLE "9:cjc079_1243"
    INDEX 01 02:31:03
  TRACK 104 AUDIO
    TITLE "0:"
    INDEX 01 02:32:31
  TRACK 105 AUDIO
    TITLE "9:cjc079_1244"
    INDEX 01 02:33:01
  TRACK 106 AUDIO
    TITLE "0:"
    INDEX 01 02:34:30
  TRACK 107 AUDIO
    TITLE "10:cjc079_1245"
    INDEX 01 02:36:00
  TRACK 108 AUDIO
    TITLE "9:cjc079_1246"
    INDEX 01 02:38:03
  TRACK 109 AUDIO
    TITLE "0:"
    INDEX 01 02:39:37
  TRACK 110 AUDIO
    TITLE "9:cjc079_1247"
    INDEX 01 02:40:11
  TRACK 111 AUDIO
    TITLE "0:"
    INDEX 01 02:41:46
  TRACK 112 AUDIO
    TITLE "10:cjc079_1248"
    INDEX 01 02:43:19
  TRACK 113 AUDIO
    TITLE "9:cjc079_1249"
    INDEX 01 02:45:20
  TRACK 114 AUDIO
    TITLE "0:"
    INDEX 01 02:46:55
  TRACK 115 AUDIO
    TITLE "9:cjc079_1250"
    INDEX 01 02:47:27
  TRACK 116 AUDIO
    TITLE "0:"
    INDEX 01 02:48:60
  TRACK 117 AUDIO
    TITLE "10:cjc079_1251"
    INDEX 01 02:50:33
  TRACK 118 AUDIO
    TITLE "9:cjc079_1252"
    INDEX 01 02:52:42
  TRACK 119 AUDIO
    TITLE "0:"
    INDEX 01 02:53:61
  TRACK 120 AUDIO
    TITLE "9:cjc079_1253"
    INDEX 01 02:54:39
  TRACK 121 AUDIO
    TITLE "0:"
    INDEX 01 02:55:58
  TRACK 122 AUDIO
    TITLE "10:cjc079_1254"
    INDEX 01 02:57:35
  TRACK 123 AUDIO
    TITLE "9:cjc079_1255"
    INDEX 01 02:59:40
  TRACK 124 AUDIO
    TITLE "0:"
    INDEX 01 03:00:61
  TRACK 125 AUDIO
    TITLE "9:cjc079_1256"
    INDEX 01 03:01:39
  TRACK 126 AUDIO
    TITLE "0:"
    INDEX 01 03:02:60
  TRACK 127 AUDIO
    TITLE "10:cjc079_1257"
    INDEX 01 03:04:35
  TRACK 128 AUDIO
    TITLE "9:cjc079_1258"
    INDEX 01 03:06:22
  TRACK 129 AUDIO
    TITLE "0:"
    INDEX 01 03:07:67
  TRACK 130 AUDIO
    TITLE "9:cjc079_1259"
    INDEX 01 03:08:35
  TRACK 131 AUDIO
    TITLE "0:"
    INDEX 01 03:10:06
  TRACK 132 AUDIO
    TITLE "10:cjc079_1260"
    INDEX 01 03:11:51
  TRACK 133 AUDIO
    TITLE "9:cjc079_1261"
    INDEX 01 03:13:69
  TRACK 134 AUDIO
    TITLE "0:"
    INDEX 01 03:15:37
  TRACK 135 AUDIO
    TITLE "9:cjc079_1262"
    INDEX 01 03:16:11
  TRACK 136 AUDIO
    TITLE "0:"
    INDEX 01 03:17:54
  TRACK 137 AUDIO
    TITLE "10:cjc079_1263"
    INDEX 01 03:19:29
  TRACK 138 AUDIO
    TITLE "9:cjc079_1264"
    INDEX 01 03:21:34
  TRACK 139 AUDIO
    TITLE "0:"
    INDEX 01 03:23:03
  TRACK 140 AUDIO
    TITLE "9:cjc079_1265"
    INDEX 01 03:23:54
  TRACK 141 AUDIO
    TITLE "0:"
    INDEX 01 03:25:22
  TRACK 142 AUDIO
    TITLE "10:cjc079_1266"
    INDEX 01 03:26:74
  TRACK 143 AUDIO
    TITLE "9:cjc079_1267"
    INDEX 01 03:29:18
  TRACK 144 AUDIO
    TITLE "0:"
    INDEX 01 03:30:70
  TRACK 145 AUDIO
    TITLE "9:cjc079_1268"
    INDEX 01 03:31:42
  TRACK 146 AUDIO
    TITLE "0:"
    INDEX 01 03:33:19
  TRACK 147 AUDIO
    TITLE "10:cjc079_1269"
    INDEX 01 03:34:64
  TRACK 148 AUDIO
    TITLE "9:cjc079_1270"
    INDEX 01 03:36:69
  TRACK 149 AUDIO
    TITLE "0:"
    INDEX 01 03:38:52
  TRACK 150 AUDIO
    TITLE "9:cjc079_1271"
    INDEX 01 03:39:30
  TRACK 151 AUDIO
    TITLE "0:"
    INDEX 01 03:41:13
  TRACK 152 AUDIO
    TITLE "10:cjc079_1272"
    INDEX 01 03:42:59
  TRACK 153 AUDIO
    TITLE "9:cjc079_1273"
    INDEX 01 03:44:62
  TRACK 154 AUDIO
    TITLE "0:"
    INDEX 01 03:46:16
  TRACK 155 AUDIO
    TITLE "9:cjc079_1274"
    INDEX 01 03:46:63
  TRACK 156 AUDIO
    TITLE "0:"
    INDEX 01 03:48:15
  TRACK 157 AUDIO
    TITLE "10:cjc079_1275"
    INDEX 01 03:49:63
  TRACK 158 AUDIO
    TITLE "9:cjc079_1276"
    INDEX 01 03:52:03
  TRACK 159 AUDIO
    TITLE "0:"
    INDEX 01 03:53:30
  TRACK 160 AUDIO
    TITLE "9:cjc079_1277"
    INDEX 01 03:54:08
  TRACK 161 AUDIO
    TITLE "0:"
    INDEX 01 03:55:37
